<svg width="325" height="95" viewBox="0 0 325 95" fill="none" xmlns="http://www.w3.org/2000/svg">
<path d="M5.08936 93.5496V33.2314H19.1466V93.5496H5.08936Z" fill="url(#paint0_linear_4298_6151)"/>
<path d="M75.1677 93.5496L49.2258 62.2404L75.0399 32.2091H91.7808L62.1329 65.9464L62.7718 57.8954L93.0587 93.5496H75.1677ZM36.1909 93.5496V1.53879H50.2481V93.5496H36.1909Z" fill="url(#paint1_linear_4298_6151)"/>
<path d="M107.949 93.5496V6.65051H122.006V93.5496H107.949ZM93.2524 44.9883V32.2091H136.702V44.9883H93.2524Z" fill="url(#paint2_linear_4298_6151)"/>
<path d="M167.01 94.8275C163.602 94.8275 160.322 94.4015 157.17 93.5496C154.018 92.6124 151.121 91.3345 148.48 89.7158C145.839 88.0119 143.539 85.9672 141.579 83.5817L150.525 74.6363C152.654 77.1069 155.082 78.9812 157.809 80.2591C160.62 81.4519 163.772 82.0482 167.265 82.0482C170.418 82.0482 172.803 81.5797 174.422 80.6425C176.04 79.7054 176.85 78.3422 176.85 76.5531C176.85 74.6789 176.083 73.2305 174.55 72.2082C173.016 71.1859 171.014 70.3339 168.543 69.6523C166.158 68.8856 163.602 68.1188 160.876 67.3521C158.235 66.5853 155.679 65.563 153.208 64.285C150.823 62.9219 148.863 61.0902 147.33 58.79C145.796 56.4897 145.029 53.5079 145.029 49.8445C145.029 45.9255 145.924 42.5603 147.713 39.7488C149.587 36.9374 152.186 34.7649 155.508 33.2314C158.916 31.6979 162.963 30.9311 167.649 30.9311C172.59 30.9311 176.935 31.8257 180.684 33.6148C184.517 35.3187 187.712 37.9171 190.268 41.4101L181.323 50.3556C179.533 48.1406 177.489 46.4793 175.189 45.3717C172.888 44.2642 170.247 43.7104 167.265 43.7104C164.454 43.7104 162.281 44.1364 160.748 44.9883C159.214 45.8403 158.448 47.0756 158.448 48.6943C158.448 50.3982 159.214 51.7188 160.748 52.6559C162.281 53.5931 164.241 54.4024 166.626 55.084C169.097 55.7655 171.653 56.5323 174.294 57.3842C177.02 58.151 179.576 59.2585 181.962 60.7069C184.432 62.07 186.434 63.9443 187.968 66.3297C189.501 68.63 190.268 71.6544 190.268 75.403C190.268 81.3667 188.181 86.095 184.006 89.588C179.832 93.081 174.166 94.8275 167.01 94.8275Z" fill="url(#paint3_linear_4298_6151)"/>
<path d="M245.179 93.5496V58.151C245.179 54.0616 243.859 50.6964 241.217 48.0554C238.662 45.4143 235.339 44.0938 231.25 44.0938C228.523 44.0938 226.095 44.6901 223.965 45.8829C221.836 47.0756 220.174 48.7369 218.982 50.8668C217.789 52.9967 217.192 55.4247 217.192 58.151L211.697 55.084C211.697 50.3982 212.72 46.2663 214.764 42.6881C216.809 39.0247 219.62 36.1706 223.199 34.1259C226.862 31.9961 230.951 30.9311 235.467 30.9311C240.067 30.9311 244.157 31.9535 247.735 33.9982C251.313 36.0428 254.125 38.8969 256.169 42.5603C258.214 46.1385 259.236 50.313 259.236 55.084V93.5496H245.179ZM203.135 93.5496V1.53879H217.192V93.5496H203.135Z" fill="url(#paint4_linear_4298_6151)"/>
<path d="M282.485 93.5496V24.1581C282.485 19.4724 283.507 15.3404 285.552 11.7622C287.681 8.18401 290.578 5.37257 294.241 3.32789C297.99 1.28321 302.292 0.260864 307.149 0.260864C310.897 0.260864 314.092 0.899827 316.733 2.17775C319.374 3.45568 321.845 5.28738 324.145 7.67284L315.072 16.7461C314.049 15.7238 312.942 14.9144 311.749 14.3181C310.556 13.7217 309.023 13.4235 307.149 13.4235C303.741 13.4235 301.1 14.3607 299.225 16.235C297.436 18.0241 296.542 20.6225 296.542 24.0303V93.5496H282.485ZM267.788 44.9883V32.2091H315.072V44.9883H267.788Z" fill="url(#paint5_linear_4298_6151)"/>
<path fill-rule="evenodd" clip-rule="evenodd" d="M12.3543 28.393C16.8406 26.7633 23.9679 19.5594 23.9679 13.0565C23.9679 6.55353 18.7683 1.28186 12.3543 1.28186C5.94031 1.28186 0.740723 6.55353 0.740723 13.0565C0.740723 19.5594 5.94031 24.8311 12.3543 24.8311C13.7292 24.8311 13.1286 27.1174 12.3543 28.393ZM10.3048 8.66013C10.351 8.64061 10.4005 8.63057 10.4505 8.63058C10.5005 8.63057 10.55 8.64061 10.5962 8.66013C10.6425 8.67964 10.6844 8.70825 10.7198 8.74432C10.7551 8.78039 10.7832 8.82321 10.8023 8.87033C10.8215 8.91746 10.8313 8.96796 10.8313 9.01897V17.9519C10.8313 18.0549 10.7912 18.1537 10.7198 18.2266C10.6484 18.2994 10.5515 18.3403 10.4505 18.3403C10.3495 18.3403 10.2527 18.2994 10.1813 18.2266C10.1099 18.1537 10.0697 18.0549 10.0697 17.9519V9.01897C10.0697 8.96797 10.0796 8.91746 10.0987 8.87033C10.1179 8.82321 10.1459 8.78039 10.1813 8.74432C10.2166 8.70825 10.2586 8.67965 10.3048 8.66013ZM8.92743 10.3821C8.87742 10.3821 8.8279 10.3921 8.7817 10.4115C8.7355 10.431 8.69352 10.4594 8.65816 10.4953C8.6228 10.5312 8.59476 10.5739 8.57562 10.6208C8.55649 10.6677 8.54665 10.7179 8.54665 10.7687V16.2022C8.54665 16.3047 8.58677 16.403 8.65818 16.4755C8.72959 16.548 8.82644 16.5888 8.92743 16.5888C9.02841 16.5888 9.12527 16.548 9.19668 16.4755C9.26808 16.403 9.3082 16.3047 9.3082 16.2022V10.7687C9.30821 10.7179 9.29837 10.6677 9.27923 10.6208C9.2601 10.5739 9.23205 10.5312 9.19669 10.4953C9.16133 10.4594 9.11935 10.431 9.07315 10.4115C9.02695 10.3921 8.97743 10.3821 8.92743 10.3821ZM7.40433 11.8672C7.35433 11.8671 7.30481 11.8771 7.25861 11.8965C7.21241 11.9159 7.17043 11.9443 7.13507 11.9801C7.09971 12.016 7.07166 12.0585 7.05253 12.1053C7.03339 12.1521 7.02355 12.2023 7.02356 12.253V14.7179C7.02356 14.7686 7.03341 14.8188 7.05254 14.8656C7.07168 14.9124 7.09973 14.9549 7.13508 14.9907C7.17044 15.0266 7.21242 15.055 7.25862 15.0744C7.30481 15.0938 7.35433 15.1037 7.40433 15.1037C7.45434 15.1037 7.50385 15.0938 7.55005 15.0744C7.59625 15.055 7.63822 15.0266 7.67358 14.9907C7.70894 14.9549 7.73699 14.9124 7.75612 14.8656C7.77526 14.8188 7.78511 14.7686 7.78511 14.7179V12.253C7.78511 12.2023 7.77527 12.1521 7.75614 12.1053C7.737 12.0585 7.70896 12.016 7.6736 11.9801C7.63824 11.9443 7.59626 11.9159 7.55006 11.8965C7.50386 11.8771 7.45434 11.8671 7.40433 11.8672ZM11.9736 10.3821C11.9236 10.3821 11.8741 10.3921 11.8279 10.4115C11.7817 10.431 11.7397 10.4594 11.7044 10.4953C11.669 10.5312 11.6409 10.5739 11.6218 10.6208C11.6027 10.6677 11.5928 10.7179 11.5928 10.7687V16.2022C11.5928 16.3047 11.633 16.403 11.7044 16.4755C11.7758 16.548 11.8726 16.5888 11.9736 16.5888C12.0746 16.5888 12.1715 16.548 12.2429 16.4755C12.3143 16.403 12.3544 16.3047 12.3544 16.2022V10.7687C12.3544 10.7179 12.3446 10.6677 12.3254 10.6208C12.3063 10.5739 12.2782 10.5312 12.2429 10.4953C12.2075 10.4594 12.1655 10.431 12.1193 10.4115C12.0731 10.3921 12.0236 10.3821 11.9736 10.3821ZM13.351 11.8965C13.3972 11.8771 13.4467 11.8671 13.4967 11.8672C13.5467 11.8671 13.5962 11.8771 13.6424 11.8965C13.6886 11.9159 13.7306 11.9443 13.766 11.9801C13.8013 12.016 13.8294 12.0585 13.8485 12.1053C13.8677 12.1521 13.8775 12.2023 13.8775 12.253V14.7179C13.8775 14.8202 13.8374 14.9184 13.766 14.9907C13.6946 15.0631 13.5977 15.1037 13.4967 15.1037C13.3957 15.1037 13.2989 15.0631 13.2275 14.9907C13.1561 14.9184 13.1159 14.8202 13.1159 14.7179V12.253C13.1159 12.2023 13.1258 12.1521 13.1449 12.1053C13.164 12.0585 13.1921 12.016 13.2274 11.9801C13.2628 11.9443 13.3048 11.9159 13.351 11.8965ZM15.0198 10.3821C14.9698 10.3821 14.9203 10.3921 14.8741 10.4115C14.8279 10.431 14.7859 10.4594 14.7505 10.4953C14.7152 10.5312 14.6871 10.5739 14.668 10.6208C14.6489 10.6677 14.639 10.7179 14.639 10.7687V16.2022C14.639 16.3047 14.6792 16.403 14.7506 16.4755C14.822 16.548 14.9188 16.5888 15.0198 16.5888C15.1208 16.5888 15.2177 16.548 15.2891 16.4755C15.3605 16.403 15.4006 16.3047 15.4006 16.2022V10.7687C15.4006 10.7179 15.3908 10.6677 15.3716 10.6208C15.3525 10.5739 15.3244 10.5312 15.2891 10.4953C15.2537 10.4594 15.2117 10.431 15.1655 10.4115C15.1193 10.3921 15.0698 10.3821 15.0198 10.3821ZM16.3972 11.8965C16.4434 11.8771 16.4929 11.8671 16.5429 11.8672C16.5929 11.8671 16.6424 11.8771 16.6886 11.8965C16.7348 11.9159 16.7768 11.9443 16.8122 11.9801C16.8475 12.016 16.8756 12.0585 16.8947 12.1053C16.9138 12.1521 16.9237 12.2023 16.9237 12.253V14.7179C16.9237 14.8202 16.8836 14.9184 16.8122 14.9907C16.7407 15.0631 16.6439 15.1037 16.5429 15.1037C16.4419 15.1037 16.3451 15.0631 16.2737 14.9907C16.2023 14.9184 16.1621 14.8202 16.1621 14.7179V12.253C16.1621 12.2023 16.172 12.1521 16.1911 12.1053C16.2102 12.0585 16.2383 12.016 16.2736 11.9801C16.309 11.9443 16.351 11.9159 16.3972 11.8965ZM17.6852 13.4664C17.6852 13.2561 17.8557 13.0856 18.066 13.0856C18.2763 13.0856 18.4468 13.2561 18.4468 13.4664C18.4468 13.6767 18.2763 13.8472 18.066 13.8472C17.8557 13.8472 17.6852 13.6767 17.6852 13.4664Z" fill="url(#paint6_linear_4298_6151)"/>
<defs>
<linearGradient id="paint0_linear_4298_6151" x1="324.145" y1="-9.67549" x2="284.114" y2="162.824" gradientUnits="userSpaceOnUse">
<stop stop-color="#7041EE"/>
<stop offset="0.527788" stop-color="#8D41EE"/>
<stop offset="1" stop-color="#D641EE"/>
</linearGradient>
<linearGradient id="paint1_linear_4298_6151" x1="324.145" y1="-9.67549" x2="284.114" y2="162.824" gradientUnits="userSpaceOnUse">
<stop stop-color="#7041EE"/>
<stop offset="0.527788" stop-color="#8D41EE"/>
<stop offset="1" stop-color="#D641EE"/>
</linearGradient>
<linearGradient id="paint2_linear_4298_6151" x1="324.145" y1="-9.67549" x2="284.114" y2="162.824" gradientUnits="userSpaceOnUse">
<stop stop-color="#7041EE"/>
<stop offset="0.527788" stop-color="#8D41EE"/>
<stop offset="1" stop-color="#D641EE"/>
</linearGradient>
<linearGradient id="paint3_linear_4298_6151" x1="324.145" y1="-9.67549" x2="284.114" y2="162.824" gradientUnits="userSpaceOnUse">
<stop stop-color="#7041EE"/>
<stop offset="0.527788" stop-color="#8D41EE"/>
<stop offset="1" stop-color="#D641EE"/>
</linearGradient>
<linearGradient id="paint4_linear_4298_6151" x1="324.145" y1="-9.67549" x2="284.114" y2="162.824" gradientUnits="userSpaceOnUse">
<stop stop-color="#7041EE"/>
<stop offset="0.527788" stop-color="#8D41EE"/>
<stop offset="1" stop-color="#D641EE"/>
</linearGradient>
<linearGradient id="paint5_linear_4298_6151" x1="324.145" y1="-9.67549" x2="284.114" y2="162.824" gradientUnits="userSpaceOnUse">
<stop stop-color="#7041EE"/>
<stop offset="0.527788" stop-color="#8D41EE"/>
<stop offset="1" stop-color="#D641EE"/>
</linearGradient>
<linearGradient id="paint6_linear_4298_6151" x1="23.9679" y1="-1.56677" x2="-1.98516" y2="26.8323" gradientUnits="userSpaceOnUse">
<stop stop-color="#7041EE"/>
<stop offset="0.527788" stop-color="#8D41EE"/>
<stop offset="1" stop-color="#D641EE"/>
</linearGradient>
</defs>
</svg>
